<mxfile host="app.diagrams.net" modified="2023-01-11T16:21:50.153Z" agent="5.0 (Windows)" etag="GRXs3tnRGjkuwk8933S3" version="20.8.3" type="github">
  <diagram id="4h3qkwirkeFsskYC3dND" name="Page-1">
    <mxGraphModel dx="1877" dy="577" grid="1" gridSize="10" guides="1" tooltips="1" connect="1" arrows="1" fold="1" page="1" pageScale="1" pageWidth="827" pageHeight="1169" math="0" shadow="0">
      <root>
        <mxCell id="0" />
        <mxCell id="1" parent="0" />
        <mxCell id="PBZieBC47ZhGEJygMxwg-3" value="" style="rounded=0;whiteSpace=wrap;html=1;" parent="1" vertex="1">
          <mxGeometry x="160" y="200" width="530" height="750" as="geometry" />
        </mxCell>
        <mxCell id="PBZieBC47ZhGEJygMxwg-4" value="site AmdWeb" style="text;html=1;align=center;verticalAlign=middle;resizable=0;points=[];autosize=1;strokeColor=none;fillColor=none;" parent="1" vertex="1">
          <mxGeometry x="160" y="200" width="100" height="30" as="geometry" />
        </mxCell>
        <mxCell id="PBZieBC47ZhGEJygMxwg-35" style="edgeStyle=none;rounded=0;orthogonalLoop=1;jettySize=auto;html=1;exitX=1;exitY=0.3333333333333333;exitDx=0;exitDy=0;exitPerimeter=0;entryX=0;entryY=0.5;entryDx=0;entryDy=0;endArrow=none;endFill=0;" parent="1" source="PBZieBC47ZhGEJygMxwg-5" target="PBZieBC47ZhGEJygMxwg-21" edge="1">
          <mxGeometry relative="1" as="geometry" />
        </mxCell>
        <mxCell id="PBZieBC47ZhGEJygMxwg-5" value="utilisateur" style="shape=umlActor;verticalLabelPosition=bottom;verticalAlign=top;html=1;outlineConnect=0;" parent="1" vertex="1">
          <mxGeometry x="67" y="412" width="30" height="60" as="geometry" />
        </mxCell>
        <mxCell id="PBZieBC47ZhGEJygMxwg-69" style="edgeStyle=none;rounded=0;orthogonalLoop=1;jettySize=auto;html=1;exitX=1;exitY=0.3333333333333333;exitDx=0;exitDy=0;exitPerimeter=0;endArrow=none;endFill=0;" parent="1" source="PBZieBC47ZhGEJygMxwg-6" target="PBZieBC47ZhGEJygMxwg-13" edge="1">
          <mxGeometry relative="1" as="geometry" />
        </mxCell>
        <mxCell id="PBZieBC47ZhGEJygMxwg-72" style="edgeStyle=none;rounded=0;orthogonalLoop=1;jettySize=auto;html=1;exitX=0.5;exitY=0;exitDx=0;exitDy=0;exitPerimeter=0;endArrow=block;endFill=0;" parent="1" source="PBZieBC47ZhGEJygMxwg-6" edge="1">
          <mxGeometry relative="1" as="geometry">
            <mxPoint x="80" y="500" as="targetPoint" />
          </mxGeometry>
        </mxCell>
        <mxCell id="PBZieBC47ZhGEJygMxwg-6" value="modérateur" style="shape=umlActor;verticalLabelPosition=bottom;verticalAlign=top;html=1;outlineConnect=0;" parent="1" vertex="1">
          <mxGeometry x="66" y="695" width="30" height="60" as="geometry" />
        </mxCell>
        <mxCell id="PBZieBC47ZhGEJygMxwg-70" style="edgeStyle=none;rounded=0;orthogonalLoop=1;jettySize=auto;html=1;exitX=1;exitY=0.3333333333333333;exitDx=0;exitDy=0;exitPerimeter=0;entryX=0;entryY=0.5;entryDx=0;entryDy=0;endArrow=none;endFill=0;" parent="1" source="PBZieBC47ZhGEJygMxwg-8" target="PBZieBC47ZhGEJygMxwg-14" edge="1">
          <mxGeometry relative="1" as="geometry" />
        </mxCell>
        <mxCell id="PBZieBC47ZhGEJygMxwg-71" style="edgeStyle=none;rounded=0;orthogonalLoop=1;jettySize=auto;html=1;exitX=0.5;exitY=0;exitDx=0;exitDy=0;exitPerimeter=0;endArrow=block;endFill=0;" parent="1" source="PBZieBC47ZhGEJygMxwg-8" edge="1">
          <mxGeometry relative="1" as="geometry">
            <mxPoint x="81" y="790" as="targetPoint" />
          </mxGeometry>
        </mxCell>
        <mxCell id="PBZieBC47ZhGEJygMxwg-8" value="administrateur" style="shape=umlActor;verticalLabelPosition=bottom;verticalAlign=top;html=1;outlineConnect=0;" parent="1" vertex="1">
          <mxGeometry x="66" y="860" width="30" height="60" as="geometry" />
        </mxCell>
        <mxCell id="PBZieBC47ZhGEJygMxwg-61" style="edgeStyle=none;rounded=0;orthogonalLoop=1;jettySize=auto;html=1;exitX=0;exitY=0.5;exitDx=0;exitDy=0;entryX=1;entryY=0.5;entryDx=0;entryDy=0;dashed=1;endArrow=open;endFill=0;" parent="1" source="PBZieBC47ZhGEJygMxwg-9" target="PBZieBC47ZhGEJygMxwg-21" edge="1">
          <mxGeometry relative="1" as="geometry" />
        </mxCell>
        <mxCell id="PBZieBC47ZhGEJygMxwg-9" value="télécharger photos / CV" style="ellipse;whiteSpace=wrap;html=1;" parent="1" vertex="1">
          <mxGeometry x="470" y="382" width="136" height="50" as="geometry" />
        </mxCell>
        <mxCell id="PBZieBC47ZhGEJygMxwg-62" style="edgeStyle=none;rounded=0;orthogonalLoop=1;jettySize=auto;html=1;exitX=0;exitY=0.5;exitDx=0;exitDy=0;dashed=1;endArrow=open;endFill=0;" parent="1" source="PBZieBC47ZhGEJygMxwg-10" edge="1">
          <mxGeometry relative="1" as="geometry">
            <mxPoint x="340" y="450" as="targetPoint" />
          </mxGeometry>
        </mxCell>
        <mxCell id="PBZieBC47ZhGEJygMxwg-10" value="envoyer l&#39;offre" style="ellipse;whiteSpace=wrap;html=1;" parent="1" vertex="1">
          <mxGeometry x="476" y="490" width="136" height="50" as="geometry" />
        </mxCell>
        <mxCell id="PBZieBC47ZhGEJygMxwg-60" style="edgeStyle=none;rounded=0;orthogonalLoop=1;jettySize=auto;html=1;exitX=0.096;exitY=0.9;exitDx=0;exitDy=0;entryX=1;entryY=0;entryDx=0;entryDy=0;endArrow=open;endFill=0;dashed=1;exitPerimeter=0;" parent="1" source="PBZieBC47ZhGEJygMxwg-11" target="PBZieBC47ZhGEJygMxwg-21" edge="1">
          <mxGeometry relative="1" as="geometry" />
        </mxCell>
        <mxCell id="PBZieBC47ZhGEJygMxwg-11" value="postuler à une offre" style="ellipse;whiteSpace=wrap;html=1;" parent="1" vertex="1">
          <mxGeometry x="387" y="280" width="136" height="50" as="geometry" />
        </mxCell>
        <mxCell id="PBZieBC47ZhGEJygMxwg-37" style="edgeStyle=none;rounded=0;orthogonalLoop=1;jettySize=auto;html=1;exitX=0.5;exitY=1;exitDx=0;exitDy=0;entryX=0.5;entryY=0;entryDx=0;entryDy=0;endArrow=open;endFill=0;dashed=1;" parent="1" source="PBZieBC47ZhGEJygMxwg-12" target="PBZieBC47ZhGEJygMxwg-21" edge="1">
          <mxGeometry relative="1" as="geometry" />
        </mxCell>
        <mxCell id="PBZieBC47ZhGEJygMxwg-12" value="consulter" style="ellipse;whiteSpace=wrap;html=1;" parent="1" vertex="1">
          <mxGeometry x="170" y="260" width="136" height="50" as="geometry" />
        </mxCell>
        <mxCell id="PBZieBC47ZhGEJygMxwg-66" style="edgeStyle=none;rounded=0;orthogonalLoop=1;jettySize=auto;html=1;exitX=1;exitY=0.5;exitDx=0;exitDy=0;entryX=0;entryY=0.5;entryDx=0;entryDy=0;dashed=1;endArrow=open;endFill=0;" parent="1" source="PBZieBC47ZhGEJygMxwg-13" target="PBZieBC47ZhGEJygMxwg-20" edge="1">
          <mxGeometry relative="1" as="geometry" />
        </mxCell>
        <mxCell id="PBZieBC47ZhGEJygMxwg-13" value="gérer les éléments" style="ellipse;whiteSpace=wrap;html=1;" parent="1" vertex="1">
          <mxGeometry x="272" y="695" width="136" height="50" as="geometry" />
        </mxCell>
        <mxCell id="PBZieBC47ZhGEJygMxwg-67" style="edgeStyle=none;rounded=0;orthogonalLoop=1;jettySize=auto;html=1;exitX=1;exitY=0.5;exitDx=0;exitDy=0;entryX=0.294;entryY=0.94;entryDx=0;entryDy=0;entryPerimeter=0;dashed=1;endArrow=open;endFill=0;" parent="1" source="PBZieBC47ZhGEJygMxwg-14" target="PBZieBC47ZhGEJygMxwg-20" edge="1">
          <mxGeometry relative="1" as="geometry" />
        </mxCell>
        <mxCell id="PBZieBC47ZhGEJygMxwg-14" value="gérer les comptes" style="ellipse;whiteSpace=wrap;html=1;" parent="1" vertex="1">
          <mxGeometry x="272" y="860" width="136" height="50" as="geometry" />
        </mxCell>
        <mxCell id="PBZieBC47ZhGEJygMxwg-20" value="s&#39;authentifier" style="ellipse;whiteSpace=wrap;html=1;" parent="1" vertex="1">
          <mxGeometry x="523" y="690" width="136" height="50" as="geometry" />
        </mxCell>
        <mxCell id="PBZieBC47ZhGEJygMxwg-65" style="edgeStyle=none;rounded=0;orthogonalLoop=1;jettySize=auto;html=1;entryX=0.346;entryY=0.06;entryDx=0;entryDy=0;entryPerimeter=0;dashed=1;endArrow=open;endFill=0;" parent="1" source="PBZieBC47ZhGEJygMxwg-21" target="PBZieBC47ZhGEJygMxwg-20" edge="1">
          <mxGeometry relative="1" as="geometry" />
        </mxCell>
        <mxCell id="PBZieBC47ZhGEJygMxwg-21" value="s&#39;inscrire" style="ellipse;whiteSpace=wrap;html=1;" parent="1" vertex="1">
          <mxGeometry x="224" y="410" width="136" height="50" as="geometry" />
        </mxCell>
        <mxCell id="PBZieBC47ZhGEJygMxwg-22" value="&lt;div align=&quot;left&quot;&gt;gérer les comptes :&lt;/div&gt;&lt;div align=&quot;left&quot;&gt;- créer&lt;/div&gt;&lt;div align=&quot;left&quot;&gt;- modifier&lt;/div&gt;&lt;div align=&quot;left&quot;&gt;- supprimer&lt;/div&gt;&lt;div align=&quot;left&quot;&gt;- afficher&lt;br&gt;&lt;/div&gt;" style="shape=note;whiteSpace=wrap;html=1;backgroundOutline=1;darkOpacity=0.05;" parent="1" vertex="1">
          <mxGeometry x="280" y="970" width="140" height="140" as="geometry" />
        </mxCell>
        <mxCell id="PBZieBC47ZhGEJygMxwg-23" value="&lt;div align=&quot;left&quot;&gt;gérer les éléments:&lt;/div&gt;&lt;div align=&quot;left&quot;&gt;- créer&lt;/div&gt;&lt;div align=&quot;left&quot;&gt;- modifier&lt;/div&gt;&lt;div align=&quot;left&quot;&gt;- supprimer&lt;/div&gt;&lt;div align=&quot;left&quot;&gt;- afficher&lt;br&gt;&lt;/div&gt;" style="shape=note;whiteSpace=wrap;html=1;backgroundOutline=1;darkOpacity=0.05;" parent="1" vertex="1">
          <mxGeometry x="-120" y="655" width="140" height="140" as="geometry" />
        </mxCell>
        <mxCell id="PBZieBC47ZhGEJygMxwg-24" value="&lt;div align=&quot;left&quot;&gt;consulter&lt;/div&gt;&lt;div align=&quot;left&quot;&gt;- l&#39;ensemble des offres&lt;br&gt;&lt;/div&gt;&lt;div align=&quot;left&quot;&gt;- l&#39;offre en détail&lt;br&gt;&lt;/div&gt;" style="shape=note;whiteSpace=wrap;html=1;backgroundOutline=1;darkOpacity=0.05;" parent="1" vertex="1">
          <mxGeometry y="230" width="140" height="100" as="geometry" />
        </mxCell>
        <mxCell id="PBZieBC47ZhGEJygMxwg-63" style="edgeStyle=none;rounded=0;orthogonalLoop=1;jettySize=auto;html=1;exitX=0.5;exitY=0;exitDx=0;exitDy=0;entryX=0.5;entryY=1;entryDx=0;entryDy=0;dashed=1;endArrow=open;endFill=0;" parent="1" source="PBZieBC47ZhGEJygMxwg-25" target="PBZieBC47ZhGEJygMxwg-21" edge="1">
          <mxGeometry relative="1" as="geometry" />
        </mxCell>
        <mxCell id="PBZieBC47ZhGEJygMxwg-25" value="&lt;div&gt;gérer l&#39;offre&lt;/div&gt;&lt;div&gt;(pourvue ou pas)&lt;br&gt;&lt;/div&gt;" style="ellipse;whiteSpace=wrap;html=1;" parent="1" vertex="1">
          <mxGeometry x="196" y="540" width="136" height="50" as="geometry" />
        </mxCell>
        <mxCell id="PBZieBC47ZhGEJygMxwg-28" value="&lt;div align=&quot;left&quot;&gt;s&#39;authentier&lt;/div&gt;&lt;div align=&quot;left&quot;&gt;- se connecter&lt;br&gt;&lt;/div&gt;&lt;div align=&quot;left&quot;&gt;- se déconnecter&lt;br&gt;&lt;/div&gt;" style="shape=note;whiteSpace=wrap;html=1;backgroundOutline=1;darkOpacity=0.05;" parent="1" vertex="1">
          <mxGeometry x="710" y="680" width="130" height="80" as="geometry" />
        </mxCell>
        <mxCell id="PBZieBC47ZhGEJygMxwg-30" value="&amp;lt;&amp;lt; includes &amp;gt;&amp;gt;" style="text;html=1;align=center;verticalAlign=middle;resizable=0;points=[];autosize=1;strokeColor=none;fillColor=none;" parent="1" vertex="1">
          <mxGeometry x="420" y="705" width="100" height="30" as="geometry" />
        </mxCell>
        <mxCell id="PBZieBC47ZhGEJygMxwg-34" value="&amp;lt;&amp;lt; includes &amp;gt;&amp;gt;" style="text;html=1;align=center;verticalAlign=middle;resizable=0;points=[];autosize=1;strokeColor=none;fillColor=none;" parent="1" vertex="1">
          <mxGeometry x="390" y="560" width="100" height="30" as="geometry" />
        </mxCell>
        <mxCell id="PBZieBC47ZhGEJygMxwg-41" value="&amp;lt;&amp;lt; extends &amp;gt;&amp;gt;" style="text;html=1;align=center;verticalAlign=middle;resizable=0;points=[];autosize=1;strokeColor=none;fillColor=none;" parent="1" vertex="1">
          <mxGeometry x="320" y="340" width="100" height="30" as="geometry" />
        </mxCell>
        <mxCell id="PBZieBC47ZhGEJygMxwg-42" value="&amp;lt;&amp;lt; extends &amp;gt;&amp;gt;" style="text;html=1;align=center;verticalAlign=middle;resizable=0;points=[];autosize=1;strokeColor=none;fillColor=none;" parent="1" vertex="1">
          <mxGeometry x="224" y="490" width="100" height="30" as="geometry" />
        </mxCell>
        <mxCell id="PBZieBC47ZhGEJygMxwg-43" value="&amp;lt;&amp;lt; extends &amp;gt;&amp;gt;" style="text;html=1;align=center;verticalAlign=middle;resizable=0;points=[];autosize=1;strokeColor=none;fillColor=none;" parent="1" vertex="1">
          <mxGeometry x="214" y="340" width="100" height="30" as="geometry" />
        </mxCell>
        <mxCell id="PBZieBC47ZhGEJygMxwg-44" value="&amp;lt;&amp;lt; extends &amp;gt;&amp;gt;" style="text;html=1;align=center;verticalAlign=middle;resizable=0;points=[];autosize=1;strokeColor=none;fillColor=none;" parent="1" vertex="1">
          <mxGeometry x="370" y="402" width="100" height="30" as="geometry" />
        </mxCell>
        <mxCell id="PBZieBC47ZhGEJygMxwg-49" value="&amp;lt;&amp;lt; extends &amp;gt;&amp;gt;" style="text;html=1;align=center;verticalAlign=middle;resizable=0;points=[];autosize=1;strokeColor=none;fillColor=none;" parent="1" vertex="1">
          <mxGeometry x="364" y="472" width="100" height="30" as="geometry" />
        </mxCell>
        <mxCell id="PBZieBC47ZhGEJygMxwg-52" style="edgeStyle=none;rounded=0;orthogonalLoop=1;jettySize=auto;html=1;exitX=1;exitY=1;exitDx=0;exitDy=0;exitPerimeter=0;dashed=1;endArrow=open;endFill=0;" parent="1" source="PBZieBC47ZhGEJygMxwg-6" target="PBZieBC47ZhGEJygMxwg-6" edge="1">
          <mxGeometry relative="1" as="geometry" />
        </mxCell>
        <mxCell id="PBZieBC47ZhGEJygMxwg-68" value="&amp;lt;&amp;lt; includes &amp;gt;&amp;gt;" style="text;html=1;align=center;verticalAlign=middle;resizable=0;points=[];autosize=1;strokeColor=none;fillColor=none;" parent="1" vertex="1">
          <mxGeometry x="440" y="800" width="100" height="30" as="geometry" />
        </mxCell>
      </root>
    </mxGraphModel>
  </diagram>
</mxfile>
